<?xml version="1.0" ?>
<!-- Uploaded to: SVG Repo, www.svgrepo.com, Generator: SVG Repo Mixer Tools -->
<svg fill="#000000" width="800px" height="800px" viewBox="0 0 512 512" id="Layer_1" version="1.1" xml:space="preserve" xmlns="http://www.w3.org/2000/svg" xmlns:xlink="http://www.w3.org/1999/xlink">
<g>
<g>
<path d="M84,381.1H50c-4.1,0-7.5-3.4-7.5-7.5V155.4c0-13.5,11-24.5,24.5-24.5s24.5,11,24.5,24.5v218.2    C91.5,377.7,88.1,381.1,84,381.1z M57.5,366.1h19V155.4c0-5.2-4.3-9.5-9.5-9.5s-9.5,4.3-9.5,9.5V366.1z"/>
</g>
<g>
<path d="M108.9,243c-2,0-3.9-0.8-5.3-2.2s-2.2-3.3-2.2-5.3v-34c0-4.1,3.4-7.5,7.5-7.5H188c22.9,0,41.5,18.6,41.5,41.5    c0,4.1-3.4,7.5-7.5,7.5H108.9z M116.4,228h97c-3.2-11-13.4-19-25.4-19h-71.6V228z"/>
</g>
<g>
<path d="M462,381.1h-34c-4.1,0-7.5-3.4-7.5-7.5V240.4c0-13.5,11-24.5,24.5-24.5s24.5,11,24.5,24.5v133.2    C469.5,377.7,466.1,381.1,462,381.1z M435.5,366.1h19V240.4c0-5.2-4.3-9.5-9.5-9.5s-9.5,4.3-9.5,9.5V366.1z"/>
</g>
<g>
<path d="M428,310.5H175.8c-4.1,0-7.5-3.4-7.5-7.5s3.4-7.5,7.5-7.5h244.7v-27.9h-329v27.9h48.3c4.1,0,7.5,3.4,7.5,7.5    s-3.4,7.5-7.5,7.5H84c-4.1,0-7.5-3.4-7.5-7.5v-42.9c0-4.1,3.4-7.5,7.5-7.5h344c4.1,0,7.5,3.4,7.5,7.5V303    C435.5,307.2,432.1,310.5,428,310.5z"/>
</g>
</g>
</svg>